<svg version="1.2" xmlns="http://www.w3.org/2000/svg" viewBox="0 0 370 370" width="180" height="180">
	<title>akave</title>
	<style>
		.s0 { fill: #001999 } 
		.s1 { fill: #0099ff } 
	</style>
	<path class="s0" d="m358.2 223.6l-69.1-88.9-0.2-0.4c-10-12.1-18.1-22.6-24.6-30.9-15.2-19.5-24.4-31.2-35.2-39.1-13.3-9.7-26.5-11.6-43.5-11.6-17.1 0-30.3 1.9-43.6 11.6-10.8 7.9-20 19.6-35.2 39.1-6.5 8.4-14.7 18.8-24.5 30.9l-0.3 0.3-72 93.3v89.4l50-0.2 53.1-69.8v27.6l1.2 0.7 70 40.2 1.2 0.7 1.2-0.7 70-40.2 1.2-0.7v-27.8l52 67v1.5h50.1v-89.7l-1.8-2.3z"/>
	<path fill-rule="evenodd" class="s1" d="m217.1 191.3l-3.4 0.2 1-3.3 10.1-33.8-26.3 21.1-2.9 2.3-0.9-3.6-9.6-38.5-9 39.8-0.8 3.7-3-2.4-27-22.3 10 33.6 1 3.2-3.4-0.1-12.2-0.7-18.3-0.4 62.6 36 62.1-36.6-17.8 1-12.2 0.8z"/>
	<path class="s1" d="m286.7 136.1l-0.3-0.3c-9.8-12.2-18-22.6-24.6-31-15-19.3-24.1-30.9-34.6-38.5-12.9-9.4-25.7-11.3-42.2-11.3-16.5 0-29.4 1.9-42.2 11.3-10.5 7.6-19.6 19.2-34.6 38.5-6.6 8.4-14.7 18.8-24.7 31l-0.2 0.3-70.4 90.6h45.4l53.2-68.4c10.1-12.4 18.3-22.9 24.9-31.4 28.1-36 28.5-36 48.6-36 20.1 0 20.5 0 48.6 36 6.6 8.5 14.9 19 24.9 31.4l53.2 68.4h45.4c0 0-70.4-90.6-70.4-90.6z"/>
</svg>